<mxfile host="Electron" agent="Mozilla/5.0 (Windows NT 10.0; Win64; x64) AppleWebKit/537.36 (KHTML, like Gecko) draw.io/24.7.5 Chrome/126.0.6478.183 Electron/31.3.0 Safari/537.36" version="24.7.5">
  <diagram name="Page-1" id="fyJvEXxorVfZsVwhONxh">
    <mxGraphModel dx="780" dy="496" grid="0" gridSize="10" guides="1" tooltips="1" connect="1" arrows="1" fold="1" page="1" pageScale="1" pageWidth="1100" pageHeight="850" background="#e3e6ed" math="0" shadow="0">
      <root>
        <mxCell id="0" />
        <mxCell id="1" parent="0" />
        <mxCell id="BnpvhLflmFskNzc0YniD-15" style="edgeStyle=orthogonalEdgeStyle;rounded=0;orthogonalLoop=1;jettySize=auto;html=1;" parent="1" edge="1">
          <mxGeometry relative="1" as="geometry">
            <mxPoint x="440" y="250" as="sourcePoint" />
            <mxPoint x="550" y="250" as="targetPoint" />
          </mxGeometry>
        </mxCell>
        <mxCell id="BnpvhLflmFskNzc0YniD-11" value="" style="image;aspect=fixed;html=1;points=[];align=center;fontSize=12;image=img/lib/azure2/analytics/Power_BI_Embedded.svg;rounded=0;" parent="1" vertex="1">
          <mxGeometry x="950" y="211" width="51" height="68" as="geometry" />
        </mxCell>
        <mxCell id="BnpvhLflmFskNzc0YniD-20" value="" style="edgeStyle=orthogonalEdgeStyle;rounded=0;orthogonalLoop=1;jettySize=auto;html=1;" parent="1" edge="1">
          <mxGeometry relative="1" as="geometry">
            <mxPoint x="650" y="234.5" as="sourcePoint" />
            <mxPoint x="730" y="234.5" as="targetPoint" />
          </mxGeometry>
        </mxCell>
        <mxCell id="BnpvhLflmFskNzc0YniD-19" style="edgeStyle=orthogonalEdgeStyle;rounded=0;orthogonalLoop=1;jettySize=auto;html=1;" parent="1" edge="1">
          <mxGeometry relative="1" as="geometry">
            <mxPoint x="820" y="244.5" as="sourcePoint" />
            <mxPoint x="950" y="244.5" as="targetPoint" />
          </mxGeometry>
        </mxCell>
        <mxCell id="6aH0JB4iTbD-fKsmFP06-5" value="&lt;font style=&quot;font-size: 14px;&quot;&gt;Data Source&lt;/font&gt;" style="text;html=1;align=center;verticalAlign=middle;whiteSpace=wrap;rounded=0;" parent="1" vertex="1">
          <mxGeometry x="350" y="172.16" width="100" height="30" as="geometry" />
        </mxCell>
        <mxCell id="6aH0JB4iTbD-fKsmFP06-6" value="&lt;font style=&quot;font-size: 14px;&quot;&gt;Staging&lt;/font&gt;" style="text;html=1;align=center;verticalAlign=middle;whiteSpace=wrap;rounded=0;" parent="1" vertex="1">
          <mxGeometry x="560" y="172.16" width="100" height="30" as="geometry" />
        </mxCell>
        <mxCell id="6aH0JB4iTbD-fKsmFP06-7" value="&lt;font style=&quot;font-size: 14px;&quot;&gt;Target Database&lt;/font&gt;" style="text;html=1;align=center;verticalAlign=middle;whiteSpace=wrap;rounded=0;" parent="1" vertex="1">
          <mxGeometry x="690" y="170" width="108.5" height="32.16" as="geometry" />
        </mxCell>
        <mxCell id="6aH0JB4iTbD-fKsmFP06-8" value="&lt;font style=&quot;font-size: 14px;&quot;&gt;SQL Database&lt;/font&gt;" style="text;html=1;align=center;verticalAlign=middle;whiteSpace=wrap;rounded=0;" parent="1" vertex="1">
          <mxGeometry x="570" y="295" width="100" height="30" as="geometry" />
        </mxCell>
        <mxCell id="6aH0JB4iTbD-fKsmFP06-9" value="&lt;font style=&quot;font-size: 14px;&quot;&gt;SQL Database&lt;/font&gt;" style="text;html=1;align=center;verticalAlign=middle;whiteSpace=wrap;rounded=0;" parent="1" vertex="1">
          <mxGeometry x="713.75" y="295" width="100" height="30" as="geometry" />
        </mxCell>
        <mxCell id="6aH0JB4iTbD-fKsmFP06-13" value="" style="endArrow=none;dashed=1;html=1;rounded=0;" parent="1" edge="1">
          <mxGeometry width="50" height="50" relative="1" as="geometry">
            <mxPoint x="550" y="160" as="sourcePoint" />
            <mxPoint x="820" y="160" as="targetPoint" />
          </mxGeometry>
        </mxCell>
        <mxCell id="6aH0JB4iTbD-fKsmFP06-14" value="" style="endArrow=none;dashed=1;html=1;rounded=0;" parent="1" edge="1">
          <mxGeometry width="50" height="50" relative="1" as="geometry">
            <mxPoint x="820" y="335" as="sourcePoint" />
            <mxPoint x="820" y="155" as="targetPoint" />
          </mxGeometry>
        </mxCell>
        <mxCell id="6aH0JB4iTbD-fKsmFP06-15" value="" style="endArrow=none;dashed=1;html=1;rounded=0;" parent="1" edge="1">
          <mxGeometry width="50" height="50" relative="1" as="geometry">
            <mxPoint x="549" y="340" as="sourcePoint" />
            <mxPoint x="549" y="160" as="targetPoint" />
          </mxGeometry>
        </mxCell>
        <mxCell id="6aH0JB4iTbD-fKsmFP06-16" value="" style="endArrow=none;dashed=1;html=1;rounded=0;" parent="1" edge="1">
          <mxGeometry width="50" height="50" relative="1" as="geometry">
            <mxPoint x="550" y="340" as="sourcePoint" />
            <mxPoint x="820" y="340" as="targetPoint" />
          </mxGeometry>
        </mxCell>
        <mxCell id="6aH0JB4iTbD-fKsmFP06-17" value="Data Warehouse" style="text;html=1;align=center;verticalAlign=middle;whiteSpace=wrap;rounded=0;" parent="1" vertex="1">
          <mxGeometry x="610" y="130" width="120" height="30" as="geometry" />
        </mxCell>
        <mxCell id="6aH0JB4iTbD-fKsmFP06-18" value="PowerBI" style="text;html=1;align=center;verticalAlign=middle;whiteSpace=wrap;rounded=0;" parent="1" vertex="1">
          <mxGeometry x="950" y="295" width="60" height="30" as="geometry" />
        </mxCell>
        <mxCell id="6aH0JB4iTbD-fKsmFP06-21" value="Visualization" style="text;html=1;align=center;verticalAlign=middle;whiteSpace=wrap;rounded=0;" parent="1" vertex="1">
          <mxGeometry x="938.25" y="170" width="74.5" height="30" as="geometry" />
        </mxCell>
        <mxCell id="d284Fl_gabCTSlMLziz2-3" value="&lt;font style=&quot;font-size: 14px;&quot;&gt;file directory&lt;/font&gt;&lt;div&gt;&lt;font style=&quot;font-size: 14px;&quot;&gt;(csv files)&lt;/font&gt;&lt;/div&gt;" style="text;html=1;align=center;verticalAlign=middle;whiteSpace=wrap;rounded=0;" parent="1" vertex="1">
          <mxGeometry x="365.16" y="285" width="100" height="40" as="geometry" />
        </mxCell>
        <mxCell id="d284Fl_gabCTSlMLziz2-4" value="" style="image;aspect=fixed;html=1;points=[];align=center;fontSize=12;image=img/lib/azure2/databases/Azure_Database_PostgreSQL_Server.svg;rounded=0;" parent="1" vertex="1">
          <mxGeometry x="580" y="200" width="67.5" height="90" as="geometry" />
        </mxCell>
        <mxCell id="d284Fl_gabCTSlMLziz2-5" value="" style="image;aspect=fixed;html=1;points=[];align=center;fontSize=12;image=img/lib/azure2/databases/Azure_Database_PostgreSQL_Server.svg;rounded=0;" parent="1" vertex="1">
          <mxGeometry x="730" y="200" width="67.5" height="90" as="geometry" />
        </mxCell>
        <mxCell id="d284Fl_gabCTSlMLziz2-8" value="" style="shape=image;verticalLabelPosition=bottom;labelBackgroundColor=default;verticalAlign=top;aspect=fixed;imageAspect=0;image=https://s3.dualstack.us-east-2.amazonaws.com/pythondotorg-assets/media/community/logos/python-logo-only.png;rounded=0;" parent="1" vertex="1">
          <mxGeometry x="460" y="200" width="39.61" height="48" as="geometry" />
        </mxCell>
        <mxCell id="d284Fl_gabCTSlMLziz2-10" value="" style="endArrow=none;html=1;rounded=0;" parent="1" edge="1">
          <mxGeometry width="50" height="50" relative="1" as="geometry">
            <mxPoint x="370" y="350" as="sourcePoint" />
            <mxPoint x="550" y="350" as="targetPoint" />
            <Array as="points" />
          </mxGeometry>
        </mxCell>
        <mxCell id="d284Fl_gabCTSlMLziz2-13" value="" style="endArrow=none;html=1;rounded=0;" parent="1" edge="1">
          <mxGeometry width="50" height="50" relative="1" as="geometry">
            <mxPoint x="370" y="350" as="sourcePoint" />
            <mxPoint x="370.5" y="310" as="targetPoint" />
          </mxGeometry>
        </mxCell>
        <mxCell id="d284Fl_gabCTSlMLziz2-15" value="&lt;font style=&quot;font-size: 14px;&quot;&gt;Transformation/Load&lt;/font&gt;" style="text;html=1;align=center;verticalAlign=middle;whiteSpace=wrap;rounded=0;" parent="1" vertex="1">
          <mxGeometry x="410" y="350" width="96" height="30" as="geometry" />
        </mxCell>
        <mxCell id="d284Fl_gabCTSlMLziz2-23" value="" style="sketch=0;aspect=fixed;pointerEvents=1;shadow=0;dashed=0;html=1;strokeColor=none;labelPosition=center;verticalLabelPosition=bottom;verticalAlign=top;align=center;fillColor=#00188D;shape=mxgraph.mscae.enterprise.server_directory;rounded=0;" parent="1" vertex="1">
          <mxGeometry x="390.32" y="211" width="49.68" height="69" as="geometry" />
        </mxCell>
      </root>
    </mxGraphModel>
  </diagram>
</mxfile>
